<svg width="28" height="28" viewBox="0 0 28 28" fill="none" xmlns="http://www.w3.org/2000/svg">
<path d="M10.5 25.6666C11.1443 25.6666 11.6666 25.1443 11.6666 24.4999C11.6666 23.8556 11.1443 23.3333 10.5 23.3333C9.85565 23.3333 9.33331 23.8556 9.33331 24.4999C9.33331 25.1443 9.85565 25.6666 10.5 25.6666Z" stroke="#2488CD" stroke-width="2" stroke-linecap="round" stroke-linejoin="round"/>
<path d="M23.3334 25.6666C23.9777 25.6666 24.5 25.1443 24.5 24.4999C24.5 23.8556 23.9777 23.3333 23.3334 23.3333C22.689 23.3333 22.1667 23.8556 22.1667 24.4999C22.1667 25.1443 22.689 25.6666 23.3334 25.6666Z" stroke="#2488CD" stroke-width="2" stroke-linecap="round" stroke-linejoin="round"/>
<path d="M1.16669 1.16675H5.83335L8.96002 16.7884C9.06671 17.3255 9.35891 17.808 9.78549 18.1514C10.2121 18.4948 10.7458 18.6772 11.2934 18.6667H22.6334C23.1809 18.6772 23.7146 18.4948 24.1412 18.1514C24.5678 17.808 24.86 17.3255 24.9667 16.7884L26.8334 7.00008H7.00002" stroke="#2488CD" stroke-width="2" stroke-linecap="round" stroke-linejoin="round"/>
</svg>
